<?xml version="1.0" encoding="utf-8"?>
<svg xmlns="http://www.w3.org/2000/svg" viewBox="0 0 500 500">
  <path class="cls-2" d="M 250.597 499.994 C 243.374 500.103 237.145 498.835 230.711 495.468 L 59.123 397.278 C 24.244 378.1 6.511 371.626 6.484 325.979 L 6.593 171.96 C 8.31 137.763 30.691 126 56.383 111.348 L 221.143 17.028 L 249.044 0.072 C 251.129 -0.378 252.642 1.381 254.359 2.417 L 456.833 119.553 C 476.583 130.716 492.775 148.244 493.307 171.96 L 493.389 321.495 C 493.389 328.882 493.975 336.842 492.625 344.121 C 486.587 376.737 463.484 384.398 437.492 398.75 L 266.981 496.082 C 261.61 498.644 256.567 499.871 250.597 499.994 Z M 249.698 78.54 L 115.919 156.149 L 250.502 233.104 L 384.117 156.122 L 249.711 78.54 L 249.698 78.54 Z M 73.598 210.165 C 74.307 221.124 73.803 232.314 73.816 243.313 L 73.871 320.854 C 73.871 322.204 73.516 325.352 74.13 326.429 L 215.241 405.892 L 215.459 304.839 C 215.459 293.022 218.349 294.957 209.994 289.56 L 73.598 210.165 Z M 426.493 210.451 L 290.356 289.069 C 288.489 290.146 285.654 291.114 284.277 292.681 L 284.645 406.982 L 426.82 325.148 C 425.702 313.167 427.379 211.433 426.493 210.451 Z" style="fill: rgb(224, 255, 79); stroke-width: 1;"/>
  <path class="cls-2" d="M 471.064 101.847 C 455.485 102.269 442.495 93.819 436.28 79.644 C 432.423 70.852 434.317 58.095 434.317 48.581 L 434.317 35.251 C 434.317 16.509 443.804 2.102 463.976 0.072 C 483.685 -1.182 499.919 14.001 499.973 33.819 L 500 63.628 C 499.946 82.86 492.667 98.916 471.078 101.833 L 471.064 101.847 Z" style="fill: rgb(224, 255, 79); stroke-width: 1;"/>
</svg>